<svg height="24" viewBox="-8 0 463 464" width="24" xmlns="http://www.w3.org/2000/svg">

<style>
path {
    fill: #fff;
}
</style>
<path d="m440 187h-40.347656l-28.261719-92.339844c-1.027344-3.363281-4.132813-5.660156-7.648437-5.660156h-38.234376l-33.992187-61.128906c-9.507813-17.132813-27.535156-27.792969-47.128906-27.871094h-54.445313c-29.722656 0-53.929687 24.433594-53.960937 54.214844-.015625 16.378906-.035157 25.023437-.046875 30.746094 0 1.527343-.003906 3.039062-.007813 4.039062h-50.667969c-3.515624 0-6.621093 2.296875-7.648437 5.660156l-28.261719 92.339844h-40.347656c-4.417969 0-8.5 3.789062-8.5 8.207031v86.800781c0 4.417969 4.082031 7.992188 8.5 7.992188h13.5v119.125c0 30.035156 25.355469 54.875 56.511719 54.875h290.972656c31.15625 0 56.515625-24.839844 56.515625-54.875v-119.125h13.5c4.417969 0 7.5-3.574219 7.5-7.992188v-86.796874c0-4.421876-3.082031-8.210938-7.5-8.210938zm-288.066406-101.800781c.011718-5.726563.03125-14.582031.046875-30.96875.003906-21.007813 16.953125-38.078125 37.960937-38.230469h54.445313c13.808593.117188 26.484375 7.671875 33.152343 19.765625l45.199219 81.25c-7.1875 6.0625-17.894531 5.289063-24.136719-1.742187l-13.585937-15.558594c-2.199219-2.511719-5.726563-3.394532-8.847656-2.21875-3.125 1.175781-5.191407 4.167968-5.1875 7.503906l.011719 15.339844c.015624 13.695312.015624 13.699218-.011719 23.089844l-.027344 10.964843c-.011719 3.664063-3.105469 5.601563-6.164063 5.601563h-5.210937c-3.058594 0-6.160156-1.945313-6.164063-5.617188 0-.949218-.019531-2.230468-.011718-3.695312.074218-.742188.105468-1.488282.097656-2.238282v-12.085937c0-4.300781.085938-7.617187.085938-7.699219.003906-.429687-.085938-.847656-.085938-1.257812v-4.554688c0-4.417968-3.582031-8-8-8s-8 3.582032-8 8v13.398438c0 4.128906-.0625 8.976562-.089844 12.972656-.445312 1.695312-2.015625 2.855469-3.765625 2.78125h-10.621093c-.957032.066406-1.898438-.289062-2.574219-.96875-.675781-.683594-1.019531-1.625-.949219-2.582031v-33.929688c0-4.417969-3.582031-8-8-8s-8 3.582031-8 8v25.597657c0 2.15625-2.230469 3.886718-4.386719 3.886718h-10.511719c-2.195312.023438-4.007812-1.699218-4.101562-3.886718v-25.601563c0-4.417969-3.582031-8-8-8s-8 3.582031-8 8v3.855469c.117188 1.683594-.433594 3.347656-1.53125 4.628906-.875.859375-2.074219 1.3125-3.296875 1.246094-.859375 0-1.789063 0-2.742187-.007813-.976563 0-1.9375-.007812-2.8125-.007812-1.609376.039062-3.167969-.566407-4.324219-1.683594-1.152344-1.121094-1.8125-2.65625-1.824219-4.265625-.0625-21.917969-.054688-22.335938-.035156-33.082031zm-60.757813 19.800781h44.761719c.007812 4 .019531 7.621094.035156 13.214844.101563 12.164062 9.992188 21.96875 22.15625 21.960937.855469 0 1.808594.027344 2.761719.035157.972656 0 1.855469.019531 2.730469.019531 1.644531.042969 3.285156-.144531 4.878906-.554688v.441407c.101562 11.023437 9.078125 19.898437 20.101562 19.882812h10.515626c2.367187-.054688 4.703124-.527344 6.902343-1.398438 3.628907 5.890626 10.078125 9.457032 17 9.398438h10.621094c2.636719.070312 5.261719-.390625 7.714844-1.351562 4.203125 5.882812 10.992187 9.367187 18.222656 9.351562h5.210937c12.402344 0 22.132813-9.488281 22.164063-21.566406l.027344-10.949219c.023437-7.78125.023437-9.136719.019531-17.125 12.082031 13.132813 32.351562 14.457031 46.035156 3l4.914063-3.769531c3.148437-2.460938 4.046875-6.847656 2.117187-10.347656l-5.644531-10.242188h23.398437l25.101563 82h-316.84375zm319.324219 304.125c0 21.210938-18.183594 38.875-40.515625 38.875h-290.972656c-22.332031 0-40.511719-17.664062-40.511719-38.875v-119.125h372zm21-135.125h-415v-71h415zm0 0"/></svg>
