<?xml version="1.0" encoding="UTF-8"?>
<svg width="24px" height="24px" viewBox="0 0 24 24" version="1.1" xmlns="http://www.w3.org/2000/svg" xmlns:xlink="http://www.w3.org/1999/xlink">
    <!-- Generator: Sketch 45.1 (43504) - http://www.bohemiancoding.com/sketch -->
    <title>icn_bag</title>
    <desc>Created with Sketch.</desc>
    <defs></defs>
    <g id="Page-1" stroke="none" stroke-width="1" fill="none" fill-rule="evenodd">
        <g id="icn_bag" fill="#fff">
            <path d="M9.88372093,11.1258838 C9.88697674,10.9048311 9.90065116,10.4980675 9.93711628,9.99761478 L14.0804651,9.99761478 C14.1065116,10.3867076 14.1188837,10.7768006 14.1159535,11.1645597 C14.1110698,11.8083799 15.087814,11.8090467 15.0926977,11.1645597 C15.0949767,10.8518185 15.0874884,10.4497226 15.0624186,9.99761478 L18.0232558,9.99761478 L18.0232558,18.9997615 L5.97674419,18.9997615 L5.97674419,9.99761478 L8.95255814,9.99761478 C8.92325581,10.4447214 8.9112093,10.8348144 8.90697674,11.1258838 C8.89818605,11.769704 9.87493023,11.7700374 9.88372093,11.1258838 L9.88372093,11.1258838 Z M12.150093,5.03576489 C13.0174419,5.20547202 13.4514419,6.71149783 13.6506977,7.41799964 C13.7968837,7.93445613 13.9023721,8.4635823 13.9772558,8.99737626 L10.0331628,8.99737626 C10.2597674,7.10359133 10.8158605,4.77470263 12.150093,5.03576489 L12.150093,5.03576489 Z M19,9.49749552 C19,9.22709771 18.776,8.99737626 18.5116279,8.99737626 L14.9803721,8.99737626 C14.7404186,6.80385318 14.0309767,4.13088244 12.0927907,4.00451897 C10.0357674,3.87082042 9.30060465,6.73083577 9.04176744,8.99737626 L5.48837209,8.99737626 C5.22432558,8.99737626 5,9.2267643 5,9.49749552 L5,19.4998807 C5,19.7702786 5.22367442,20 5.48837209,20 L18.5116279,20 C18.6548837,20 18.7639535,19.9466539 18.842093,19.8663015 C18.8476279,19.8613003 18.8528372,19.8556322 18.8583721,19.8502976 C18.8613023,19.8469635 18.8645581,19.8439628 18.8674884,19.8406287 C18.9469302,19.7602762 19,19.6482495 19,19.4998807 L19,9.49749552 Z"></path>
        </g>
    </g>
</svg>