<?xml version="1.0" encoding="utf-8"?>
<!-- Generator: Adobe Illustrator 22.0.0, SVG Export Plug-In . SVG Version: 6.00 Build 0)  -->
<svg version="1.1" id="Calque_1" xmlns="http://www.w3.org/2000/svg" xmlns:xlink="http://www.w3.org/1999/xlink" x="0px" y="0px"
	 viewBox="0 0 200.4 63.5" style="enable-background:new 0 0 200.4 63.5;" xml:space="preserve">
<style type="text/css">
	.st0{fill:none;stroke:#000000;stroke-miterlimit:10;}
	.st1{fill-rule:evenodd;clip-rule:evenodd;fill:none;stroke:#000000;stroke-miterlimit:10;}
</style>
<g>
	<path d="M88.9,46.9c0.5,0,1,0.2,1.5,0.6c0.5,0.4,0.7,1,0.7,1.6c0,0.5-0.1,1-0.4,1.3s-0.6,0.7-1.1,1.1c0.6,0.2,1.2,0.6,1.7,1.1
		s0.8,1.2,0.8,1.9c0,1.1-0.4,2-1.2,2.7c-0.8,0.7-1.8,1-2.9,1c-1,0-1.8-0.2-2.3-0.5c-0.1-0.1-0.2-0.3-0.2-0.5c0-0.6,0.2-0.8,0.7-0.8
		c0.1,0,0.2,0,0.3,0.1c0.1,0.1,0.2,0.2,0.4,0.3c0.1,0.1,0.2,0.2,0.3,0.3c0.3,0.2,0.8,0.4,1.3,0.4c0.5,0,1-0.2,1.4-0.6
		c0.4-0.4,0.6-1.1,0.6-2c0-0.7-0.2-1.3-0.7-1.8c-0.4-0.5-1-0.7-1.6-0.7c-0.4,0-0.8,0-1.1,0.1C87,52.6,87,52.5,87,52.3
		c0-0.1,0-0.1,0-0.2c0.8-0.1,1.5-0.4,1.9-0.8c0.5-0.4,0.7-1,0.7-1.7c0-0.4-0.2-0.8-0.5-1.1c-0.3-0.3-0.7-0.5-1.1-0.5
		c-0.3,0-0.5,0-0.7,0.1c-0.2,0.1-0.4,0.2-0.5,0.3c-0.1,0.1-0.2,0.2-0.3,0.3c-0.1,0.1-0.2,0.2-0.2,0.2c0,0-0.1-0.1-0.1-0.2
		c0-0.1-0.1-0.2-0.1-0.3c0.3-0.5,0.7-0.8,1.1-1.1C87.7,47.1,88.2,46.9,88.9,46.9z"/>
	<path d="M97.2,58.4c-1,0-1.8-0.4-2.4-1.1c-0.6-0.8-1-1.6-1-2.6c0-0.9,0.2-1.8,0.5-2.7c0.4-0.8,0.9-1.6,1.5-2.2
		c0.6-0.6,1.3-1.2,2-1.7c0.7-0.5,1.5-0.9,2.3-1.2c0.1,0,0.2,0.1,0.3,0.2c0.1,0.1,0.2,0.2,0.2,0.3c-1.2,0.5-2.2,1.1-3,1.9
		c-0.8,0.7-1.4,1.7-1.7,2.9c0,0.1,0,0.2,0,0.2c0,0,0,0,0.1,0c0.2-0.1,0.5-0.3,0.9-0.4c0.4-0.2,0.8-0.2,1.2-0.2c0.8,0,1.5,0.3,2.1,1
		c0.6,0.7,0.8,1.4,0.8,2.3c0,1-0.4,1.8-1.1,2.5C99,58,98.1,58.4,97.2,58.4z M95.3,54.6c0,0.8,0.2,1.6,0.6,2.2s0.9,0.9,1.5,0.9
		c0.5,0,1-0.2,1.4-0.7c0.4-0.5,0.6-1.1,0.6-1.8c0-0.8-0.2-1.5-0.6-2c-0.4-0.5-0.9-0.8-1.7-0.8c-0.3,0-0.6,0.1-0.9,0.3
		c-0.3,0.2-0.5,0.4-0.6,0.5C95.4,53.6,95.3,54.1,95.3,54.6z"/>
	<path d="M102,52.6c0-1.6,0.3-3,1-4c0.7-1.1,1.6-1.6,2.8-1.6c1.2,0,2.1,0.5,2.8,1.6c0.7,1.1,1,2.4,1,4.1c0,1.6-0.3,3-1,4
		c-0.7,1.1-1.6,1.6-2.8,1.6c-1.2,0-2.1-0.6-2.8-1.7C102.4,55.6,102,54.2,102,52.6z M103.6,52.6c0,1.4,0.2,2.6,0.6,3.6
		c0.4,1,0.9,1.5,1.6,1.5c0.8,0,1.3-0.5,1.8-1.5c0.4-1,0.6-2.2,0.6-3.7c0-1.4-0.2-2.6-0.6-3.5c-0.4-0.9-0.9-1.4-1.6-1.4
		c-0.7,0-1.3,0.5-1.7,1.4C103.8,50,103.6,51.2,103.6,52.6z"/>
	<path d="M111,50c-0.3-0.3-0.5-0.8-0.5-1.2s0.2-0.9,0.5-1.2c0.3-0.3,0.8-0.5,1.2-0.5c0.5,0,0.9,0.2,1.2,0.5s0.5,0.7,0.5,1.2
		c0,0.5-0.2,0.9-0.5,1.2s-0.7,0.5-1.2,0.5C111.7,50.5,111.3,50.4,111,50z M111.1,48.8c0,0.3,0.1,0.6,0.3,0.8
		c0.2,0.2,0.5,0.3,0.8,0.3c0.3,0,0.5-0.1,0.8-0.3c0.2-0.2,0.3-0.5,0.3-0.8s-0.1-0.6-0.3-0.8c-0.2-0.2-0.5-0.3-0.8-0.3
		c-0.3,0-0.6,0.1-0.8,0.3C111.2,48.2,111.1,48.5,111.1,48.8z"/>
</g>
<path class="st0" d="M179.5,3.4c12.8,5.3,20.4,11.8,20.4,19c0,13.9-28.8,25.7-68.7,29.8"/>
<path class="st0" d="M20.6,3.5"/>
<path class="st0" d="M66,51.8C27.8,47.4,0.5,35.9,0.5,22.4C0.5,15.3,8,8.7,20.6,3.5"/>
<path class="st0" d="M66,51.8"/>
<path class="st0" d="M131.2,52.1"/>
<path class="st1" d="M19.4,8.8L21,3.4l-4.9-2.9"/>
<path class="st1" d="M133.8,47.3l-3,4.9l4,4.1"/>
</svg>
