<?xml version="1.0" encoding="UTF-8"?>
<!DOCTYPE svg PUBLIC "-//W3C//DTD SVG 1.1//EN" "http://www.w3.org/Graphics/SVG/1.1/DTD/svg11.dtd">
<!-- Creator: CorelDRAW X7 -->
<svg xmlns="http://www.w3.org/2000/svg" xml:space="preserve" width="180px" height="80px" version="1.1" style="shape-rendering:geometricPrecision; text-rendering:geometricPrecision; image-rendering:optimizeQuality; fill-rule:evenodd; clip-rule:evenodd"
viewBox="0 0 520 94"
 xmlns:xlink="http://www.w3.org/1999/xlink">
 <defs>
  <style type="text/css">
   <![CDATA[
    .fil1 {fill:#E7D48F}
    .fil0 {fill:#E7D48F;fill-rule:nonzero}
   ]]>
  </style>
 </defs>
 <g id="Layer_x0020_1">
  <metadata id="CorelCorpID_0Corel-Layer"/>
  <g id="_334369768">
   <g>
    <path class="fil0" d="M75 25c0,0 1,0 1,0 1,0 1,1 1,1 -3,4 -5,7 -8,10 -3,3 -6,5 -10,7 -4,2 -10,2 -14,-1 -1,-1 -2,-2 -3,-4 -5,-11 4,-19 12,-26 0,0 1,-1 2,-1l1 -1c2,-2 3,-3 4,-3 0,-1 1,-1 2,0 2,1 5,4 7,5 2,3 6,6 9,6 0,0 0,0 1,0 0,0 0,-1 0,-1 -1,-1 -1,-2 -2,-3l0 0c-2,-3 -5,-6 -8,-8 -2,-2 -4,-4 -6,-4l0 0c0,0 0,0 0,0l0 0c0,0 0,0 -1,0 0,0 -2,1 -3,2 -1,0 -3,1 -5,3 -19,13 -18,21 -17,37l0 1c3,1 7,3 9,6 3,4 6,8 7,12 0,0 -1,1 -1,1 -1,0 -1,0 -1,-1 -1,-3 -3,-7 -6,-10 -3,-3 -6,-5 -9,-6 -1,4 -4,8 -8,12 -4,4 -9,7 -13,9 -6,2 -10,2 -13,0 -2,-2 -3,-4 -3,-7 0,-2 1,-5 4,-8 4,-5 15,-10 32,-9l0 0c-2,-17 -2,-25 18,-39 2,-1 3,-3 5,-3 2,-1 3,-2 4,-2 0,0 0,0 1,0l0 0c0,0 0,0 0,0l0 0c2,0 5,2 7,4 4,3 7,6 8,8l0 0c2,2 3,4 3,5 0,1 0,2 -1,2 0,1 -1,1 -2,1 -4,0 -8,-3 -11,-6 -2,-2 -4,-4 -6,-5 0,0 0,-1 -1,0 0,0 -1,1 -3,3l-1 0c-1,1 -1,2 -2,2 -7,6 -15,13 -11,23 1,1 1,2 2,3 4,3 9,2 13,1 3,-2 6,-4 8,-7 3,-3 6,-6 8,-9zm-11 -23l0 0 0 0c0,0 0,0 0,0l0 0zm-36 55c3,-3 6,-7 7,-10 -16,-2 -25,2 -30,8 -2,2 -3,4 -3,6 0,2 1,4 2,5 2,2 6,2 11,0 4,-2 9,-5 13,-9z"/>
    <g>
     <path class="fil1" d="M66 51c6,0 10,5 10,11 0,6 -4,10 -10,10 -6,0 -11,-4 -11,-10 0,-6 5,-11 11,-11zm-10 19c2,3 6,5 10,5 7,0 13,-6 13,-13 0,-8 -6,-14 -13,-14 -8,0 -14,6 -14,14 0,2 1,4 2,6 1,1 1,2 2,2z"/>
     <path class="fil1" d="M57 75c4,0 8,4 8,9 0,4 -4,8 -8,8 -5,0 -9,-4 -9,-8 0,-5 4,-9 9,-9zm-8 16c2,2 4,3 8,3 6,0 10,-4 10,-10 0,-6 -4,-11 -10,-11 -6,0 -11,5 -11,11 0,2 0,4 1,5 1,1 1,1 2,2z"/>
     <path class="fil1" d="M43 59c5,0 9,4 9,8 0,5 -4,9 -9,9 -5,0 -8,-4 -8,-9 0,-4 3,-8 8,-8zm-7 15c1,3 4,4 7,4 6,0 11,-5 11,-11 0,-5 -5,-10 -11,-10 -6,0 -10,5 -10,10 0,2 0,4 1,6 1,0 1,1 2,1z"/>
    </g>
   </g>
   <g>
    <path class="fil0" d="M117 38l-12 0 -3 7 -5 0 11 -29 5 0 11 29 -5 0 -2 -7zm-2 -3l-4 -14 -5 14 9 0zm38 10l-7 -12 -4 0 0 12 -4 0 0 -29 10 0c3,0 6,1 7,2 2,2 3,4 3,7 0,2 -1,4 -2,5 -1,2 -3,3 -5,3l7 12 -5 0zm-11 -15l5 0c4,0 6,-2 6,-5 0,-2 0,-3 -1,-4 -1,-1 -3,-1 -5,-1l-5 0 0 10zm44 -15c2,0 5,1 7,2 2,1 4,3 5,5 1,3 2,5 2,8 0,3 -1,6 -2,8 -1,2 -3,4 -5,5 -2,1 -5,2 -7,2 -3,0 -5,-1 -8,-2 -2,-1 -3,-3 -5,-5 -1,-2 -2,-5 -2,-8 0,-3 1,-5 2,-8 2,-2 3,-4 5,-5 3,-1 5,-2 8,-2zm0 5c-2,0 -4,0 -5,1 -2,1 -3,2 -4,4 0,1 -1,3 -1,5 0,2 1,4 1,6 1,1 2,3 4,3 1,1 3,2 5,2 2,0 3,-1 5,-2 1,0 2,-2 3,-3 1,-2 1,-4 1,-6 0,-2 0,-4 -1,-5 -1,-2 -2,-3 -3,-4 -2,-1 -3,-1 -5,-1zm59 -4l0 29 -5 0 0 -22 -8 22 -4 0 -8 -22 0 22 -5 0 0 -29 6 0 9 23 9 -23 6 0zm33 22l-12 0 -2 7 -5 0 10 -29 6 0 10 29 -5 0 -2 -7zm-1 -3l-5 -14 -5 14 10 0zm45 -20c3,0 5,1 7,2 2,1 4,3 5,5 2,3 2,5 2,8 0,3 0,6 -2,8 -1,2 -3,4 -5,5 -2,1 -4,2 -7,2 -3,0 -5,-1 -7,-2 -3,-1 -4,-3 -6,-5 -1,-2 -1,-5 -1,-8 0,-3 0,-5 1,-8 2,-2 3,-4 6,-5 2,-1 4,-2 7,-2zm0 5c-2,0 -4,0 -5,1 -1,1 -3,2 -3,4 -1,1 -2,3 -2,5 0,2 1,4 2,6 0,1 2,3 3,3 1,1 3,2 5,2 2,0 3,-1 5,-2 1,0 2,-2 3,-3 1,-2 1,-4 1,-6 0,-2 0,-4 -1,-5 -1,-2 -2,-3 -3,-4 -2,-1 -3,-1 -5,-1zm46 -4l0 3 -12 0 0 9 10 0 0 4 -10 0 0 13 -5 0 0 -29 17 0zm61 0l-7 29 -6 0 -6 -23 -6 23 -6 0 -7 -29 5 0 5 23 6 -23 5 0 7 23 5 -23 5 0zm19 0l0 29 -5 0 0 -29 5 0zm39 29l-5 0 -14 -22 0 22 -4 0 0 -29 4 0 14 21 0 -21 5 0 0 29zm21 -26l0 9 10 0 0 4 -10 0 0 9 12 0 0 4 -17 0 0 -29 17 0 0 3 -12 0z"/>
    <path class="fil0" d="M141 59l-5 19 -2 0 -5 -16 -4 16 -3 0 -5 -19 2 0 4 17 5 -17 2 0 5 17 4 -17 2 0zm3 0c0,-1 0,-1 0,-1 1,0 1,0 1,0 1,0 1,0 1,0 1,0 1,0 1,1 0,0 0,1 -1,1 0,0 0,0 -1,0 0,0 0,0 -1,0 0,0 0,-1 0,-1zm2 4l0 15 -2 0 0 -15 2 0zm12 0c2,0 3,1 4,2 1,1 2,2 2,5l0 8 -2 0 0 -8c0,-2 0,-3 -1,-4 -1,-1 -2,-1 -4,-1 -1,0 -2,0 -3,1 -1,1 -1,2 -1,4l0 8 -2 0 0 -15 2 0 0 4c0,-1 1,-2 2,-3 1,-1 2,-1 3,-1zm17 14c1,0 2,0 3,-1 1,-1 1,-2 2,-3l2 0c-1,2 -1,3 -3,4 -1,1 -3,1 -4,1 -2,0 -3,0 -4,0 -1,-1 -2,-2 -3,-3 0,-1 -1,-3 -1,-4 0,-2 1,-3 1,-4 1,-1 2,-2 3,-3 1,-1 2,-1 4,-1 1,0 2,0 3,1 1,1 2,1 3,2 0,2 1,3 1,4 0,0 0,1 0,1l-13 0c0,1 0,3 1,3 0,1 1,2 2,2 1,1 2,1 3,1zm0 -12c-1,0 -2,0 -3,0 -1,1 -2,1 -2,2 -1,1 -1,2 -1,3l11 0c0,-1 0,-2 -1,-3 0,-1 -1,-1 -2,-2 -1,0 -1,0 -2,0zm17 -6c0,-1 0,-1 0,-1 0,0 1,0 1,0 1,0 1,0 1,0 0,0 1,0 1,1 0,0 -1,1 -1,1 0,0 0,0 -1,0 0,0 -1,0 -1,0 0,0 0,-1 0,-1zm2 4l0 15 -2 0 0 -15 2 0zm12 0c2,0 3,1 4,2 1,1 2,2 2,5l0 8 -2 0 0 -8c0,-2 -1,-3 -1,-4 -1,-1 -2,-1 -4,-1 -1,0 -2,0 -3,1 -1,1 -2,2 -2,4l0 8 -2 0 0 -15 2 0 0 4c1,-1 1,-2 2,-3 1,-1 3,-1 4,-1zm14 0c2,0 3,1 4,1 1,1 2,2 2,4l-2 0c0,-1 0,-2 -1,-3 -1,0 -2,0 -3,0 -1,0 -2,0 -2,0 -1,1 -1,1 -1,2 0,1 0,1 1,2 0,0 0,0 1,0 0,1 1,1 2,1 1,0 2,1 3,1 0,0 1,1 1,1 1,1 1,1 1,2 0,2 0,3 -1,3 -1,1 -2,1 -4,1 -1,0 -3,0 -4,-1 -1,-1 -2,-2 -2,-3l2 0c0,1 1,1 1,2 1,1 2,1 3,1 1,0 2,0 3,-1 0,0 0,-1 0,-2 0,0 0,-1 0,-1 -1,-1 -1,-1 -2,-1 0,0 -1,0 -2,-1 -1,0 -2,0 -2,0 -1,-1 -2,-1 -2,-2 0,0 -1,-1 -1,-2 0,-1 1,-2 2,-3 1,-1 2,-1 3,-1zm18 0c1,0 2,0 3,1 1,1 2,2 3,3 0,1 1,2 1,4 0,1 -1,3 -1,4 -1,1 -2,2 -3,3 -1,0 -2,0 -3,0 -2,0 -3,0 -4,-1 -1,-1 -2,-2 -2,-3l0 11 -2 0 0 -22 2 0 0 4c0,-1 1,-2 2,-3 1,-1 2,-1 4,-1zm-1 2c-1,0 -2,0 -3,1 -1,0 -1,1 -2,2 0,1 0,2 0,3 0,1 0,2 0,3 1,1 1,2 2,2 1,1 2,1 3,1 2,0 3,-1 4,-2 1,-1 2,-2 2,-4 0,-2 -1,-4 -2,-5 -1,-1 -2,-1 -4,-1zm11 -6c0,-1 0,-1 0,-1 0,0 1,0 1,0 0,0 1,0 1,0 0,0 0,0 0,1 0,0 0,1 0,1 0,0 -1,0 -1,0 0,0 -1,0 -1,0 0,0 0,-1 0,-1zm2 4l0 15 -2 0 0 -15 2 0zm6 3c1,-1 1,-2 2,-2 1,-1 2,-1 4,-1l0 2 -1 0c-1,0 -2,0 -3,1 -1,1 -2,2 -2,4l0 8 -2 0 0 -15 2 0 0 3zm15 11c1,0 2,0 3,-1 1,-1 2,-2 2,-3l2 0c0,2 -1,3 -2,4 -2,1 -3,1 -5,1 -1,0 -3,0 -4,0 -1,-1 -2,-2 -2,-3 -1,-1 -1,-3 -1,-4 0,-2 0,-3 1,-4 0,-1 1,-2 2,-3 1,-1 3,-1 4,-1 1,0 3,0 4,1 1,1 2,1 2,2 1,2 1,3 1,4 0,0 0,1 0,1l-12 0c0,1 0,3 0,3 1,1 1,2 2,2 1,1 2,1 3,1zm0 -12c-1,0 -2,0 -3,0 -1,1 -1,1 -2,2 0,1 0,2 0,3l10 0c0,-1 0,-2 -1,-3 0,-1 -1,-1 -1,-2 -1,0 -2,0 -3,0zm17 -2c1,0 3,0 4,1 1,1 1,2 2,3l0 -9 2 0 0 20 -2 0 0 -4c-1,1 -1,2 -2,3 -1,1 -3,1 -4,1 -2,0 -3,0 -4,0 -1,-1 -2,-2 -2,-3 -1,-1 -1,-3 -1,-4 0,-2 0,-3 1,-4 0,-1 1,-2 2,-3 1,-1 2,-1 4,-1zm0 2c-1,0 -3,0 -4,1 -1,1 -1,3 -1,5 0,2 0,3 1,4 1,1 3,2 4,2 1,0 2,0 3,-1 1,0 2,-1 2,-2 1,-1 1,-2 1,-3 0,-1 0,-2 -1,-3 0,-1 -1,-2 -2,-2 -1,-1 -2,-1 -3,-1zm27 -2c1,0 3,0 4,1 1,1 2,2 2,3 1,1 1,2 1,4 0,1 0,3 -1,4 0,1 -1,2 -2,3 -1,0 -3,0 -4,0 -2,0 -3,0 -4,-1 -1,-1 -2,-2 -2,-3l0 4 -2 0 0 -20 2 0 0 9c0,-1 1,-2 2,-3 1,-1 2,-1 4,-1zm-1 2c-1,0 -2,0 -2,1 -1,0 -2,1 -2,2 -1,1 -1,2 -1,3 0,1 0,2 1,3 0,1 1,2 2,2 0,1 1,1 2,1 2,0 4,-1 5,-2 1,-1 1,-2 1,-4 0,-2 0,-4 -1,-5 -1,-1 -3,-1 -5,-1zm12 -2l5 13 5 -13 2 0 -9 22 -2 0 3 -7 -6 -15 2 0zm22 0l5 13 5 -13 2 0 -9 22 -2 0 3 -7 -6 -15 2 0zm21 0c2,0 3,0 4,1 1,1 2,2 3,3 0,1 1,2 1,4 0,1 -1,3 -1,4 -1,1 -2,2 -3,3 -1,0 -2,0 -4,0 -1,0 -2,0 -4,0 -1,-1 -2,-2 -2,-3 -1,-1 -1,-3 -1,-4 0,-2 0,-3 1,-4 0,-1 1,-2 2,-3 2,-1 3,-1 4,-1zm0 2c-1,0 -2,0 -2,0 -1,1 -2,2 -2,2 -1,1 -1,2 -1,4 0,1 0,2 1,3 0,1 1,2 2,2 0,1 1,1 2,1 1,0 2,0 3,-1 1,0 2,-1 2,-2 1,-1 1,-2 1,-3 0,-2 0,-3 -1,-4 0,0 -1,-1 -2,-2 -1,0 -2,0 -3,0zm24 -2l0 15 -2 0 0 -3c0,1 -1,2 -2,3 -1,0 -2,1 -3,1 -2,0 -4,-1 -5,-2 -1,-1 -1,-3 -1,-5l0 -9 2 0 0 9c0,1 0,3 1,4 1,0 2,1 3,1 2,0 3,-1 4,-2 1,0 1,-2 1,-4l0 -8 2 0zm6 3c1,-1 1,-2 2,-2 1,-1 2,-1 4,-1l0 2 -1 0c-1,0 -2,0 -3,1 -1,1 -2,2 -2,4l0 8 -2 0 0 -15 2 0 0 3zm24 -3c1,0 2,0 3,1 1,1 2,2 3,3 0,1 1,2 1,4 0,1 -1,3 -1,4 -1,1 -2,2 -3,3 -1,0 -2,0 -3,0 -2,0 -3,0 -4,-1 -1,-1 -2,-2 -3,-3l0 11 -1 0 0 -22 1 0 0 4c1,-1 2,-2 3,-3 1,-1 2,-1 4,-1zm-1 2c-1,0 -2,0 -3,1 -1,0 -1,1 -2,2 0,1 -1,2 -1,3 0,1 1,2 1,3 1,1 1,2 2,2 1,1 2,1 3,1 2,0 3,-1 4,-2 1,-1 2,-2 2,-4 0,-2 -1,-4 -2,-5 -1,-1 -2,-1 -4,-1zm17 -2c2,0 3,0 4,1 1,1 2,2 2,3l0 -4 2 0 0 15 -2 0 0 -4c0,1 -1,2 -2,3 -1,1 -2,1 -4,1 -1,0 -2,0 -3,0 -1,-1 -2,-2 -3,-3 0,-1 -1,-3 -1,-4 0,-2 1,-3 1,-4 1,-1 2,-2 3,-3 1,-1 2,-1 3,-1zm1 2c-2,0 -3,0 -4,1 -1,1 -2,3 -2,5 0,2 1,3 2,4 1,1 2,2 4,2 1,0 2,0 3,-1 0,0 1,-1 2,-2 0,-1 0,-2 0,-3 0,-1 0,-2 0,-3 -1,-1 -2,-2 -2,-2 -1,-1 -2,-1 -3,-1zm13 -7l0 20 -2 0 0 -20 2 0zm11 5c1,0 3,0 4,1 1,1 2,2 2,3l0 -4 2 0 0 15 -2 0 0 -4c0,1 -1,2 -2,3 -1,1 -3,1 -4,1 -2,0 -3,0 -4,0 -1,-1 -2,-2 -2,-3 -1,-1 -1,-3 -1,-4 0,-2 0,-3 1,-4 0,-1 1,-2 2,-3 1,-1 2,-1 4,-1zm0 2c-1,0 -3,0 -4,1 -1,1 -1,3 -1,5 0,2 0,3 1,4 1,1 3,2 4,2 1,0 2,0 3,-1 1,0 2,-1 2,-2 1,-1 1,-2 1,-3 0,-1 0,-2 -1,-3 0,-1 -1,-2 -2,-2 -1,-1 -2,-1 -3,-1zm19 12l0 1 -2 0c-1,0 -3,0 -3,-1 -1,0 -1,-2 -1,-3l0 -9 -3 0 0 -2 3 0 0 -3 2 0 0 3 4 0 0 2 -4 0 0 9c0,1 0,2 0,2 1,0 1,1 2,1l2 0zm9 0c2,0 3,0 4,-1 1,-1 1,-2 1,-3l3 0c-1,2 -2,3 -3,4 -1,1 -3,1 -4,1 -2,0 -3,0 -4,0 -1,-1 -2,-2 -3,-3 0,-1 -1,-3 -1,-4 0,-2 1,-3 1,-4 1,-1 2,-2 3,-3 1,-1 2,-1 4,-1 1,0 2,0 3,1 1,1 2,1 3,2 0,2 1,3 1,4 0,0 0,1 -1,1l-12 0c0,1 0,3 1,3 0,1 1,2 2,2 1,1 2,1 2,1zm1 -12c-1,0 -2,0 -3,0 -1,1 -2,1 -2,2 -1,1 -1,2 -1,3l11 0c0,-1 0,-2 -1,-3 0,-1 -1,-1 -2,-2 -1,0 -2,0 -2,0z"/>
   </g>
  </g>
 </g>
</svg>
